<svg width="30" height="29" viewBox="0 0 30 29" fill="none" xmlns="http://www.w3.org/2000/svg">
<path fill-rule="evenodd" clip-rule="evenodd" d="M8.07107 2.40998C4.71811 2.40998 2 5.37272 2 9.02744C2 10.7825 2.63963 12.4657 3.77817 13.7067L15 25.9385L26.2218 13.7067C27.3604 12.4657 28 10.7825 28 9.02744C28 5.37272 25.2819 2.40998 21.9289 2.40998C20.3188 2.40998 18.7746 3.10717 17.636 4.34819L15.7071 6.45073C15.3166 6.8764 14.6834 6.8764 14.2929 6.45073L12.364 4.34819C11.2254 3.10718 9.68121 2.40998 8.07107 2.40998ZM0 9.02744C0 4.16874 3.61354 0.22998 8.07107 0.22998C10.2116 0.22998 12.2646 1.15685 13.7782 2.8067L15 4.13849L16.2218 2.8067C17.7354 1.15685 19.7884 0.22998 21.9289 0.22998C26.3865 0.22998 30 4.16874 30 9.02744C30 11.3607 29.1497 13.5983 27.636 15.2482L15.7071 28.2507C15.3166 28.6764 14.6834 28.6764 14.2929 28.2507L2.36396 15.2482C0.850339 13.5983 0 11.3607 0 9.02744Z" fill="#FF868E"/>
</svg>
