<svg width="30" height="33" viewBox="0 0 30 33" fill="none" xmlns="http://www.w3.org/2000/svg">
<path id="Vector (Stroke)" fill-rule="evenodd" clip-rule="evenodd" d="M0 16.4C0 7.37019 6.71573 0.0500488 15 0.0500488C23.2843 0.0500488 30 7.37019 30 16.4C30 25.4299 23.2843 32.75 15 32.75C6.71573 32.75 0 25.4299 0 16.4ZM15 2.23005C7.8203 2.23005 2 8.57417 2 16.4C2 24.2259 7.8203 30.57 15 30.57C22.1797 30.57 28 24.2259 28 16.4C28 8.57417 22.1797 2.23005 15 2.23005ZM10 13.13H8V10.95H10V13.13ZM22 13.13H20V10.95H22V13.13ZM9.2 18.1441L9.8 19.016C12.4 22.7947 17.6 22.7947 20.2 19.016L20.8 18.1441L22.4 19.452L21.8 20.324C18.4 25.2654 11.6 25.2654 8.2 20.324L7.6 19.452L9.2 18.1441Z" fill="#FF868E"/>
</svg>
